<svg xmlns="http://www.w3.org/2000/svg"  fill="currentColor" viewBox="0 0 80 80">
  <path d="M58.39 17.27c-.74-.56-1.7-.74-2.59-.49l-26.09 7.16a2.967 2.967 0 0 0-2.12 2.83v22.47c-.78-.25-1.59-.37-2.41-.37h-.58c-4.58.16-8.18 4.02-8.02 8.6.16 4.48 3.86 8.02 8.31 8.02h.29v-.15l.02.15c2.22-.01 4.3-.89 5.87-2.46a8.28 8.28 0 0 0 2.41-5.89V36.16l20.18-5.49V42.1c-.78-.25-1.59-.37-2.41-.37h-.02c-4.59 0-8.31 3.74-8.31 8.33 0 4.58 3.74 8.31 8.32 8.31 2.22 0 4.31-.87 5.88-2.44a8.26 8.26 0 0 0 2.43-5.88V19.62c0-.92-.43-1.8-1.16-2.35ZM55.6 44.68c.22-.22.34-.51.34-.81V29.14a1.141 1.141 0 0 0-1.46-1.1l-22.46 6.1c-.52.14-.86.62-.84 1.15v21.93a6.011 6.011 0 0 1-6.01 5.99h-.02c-1.6 0-3.11-.63-4.24-1.77a6 6 0 0 1-1.75-4.25c0-1.6.63-3.11 1.77-4.24a5.954 5.954 0 0 1 4.23-1.75h.02c1.05 0 2.09.3 2.99.84a1.159 1.159 0 0 0 1.38-.18c.22-.22.34-.51.34-.82V26.78c0-.29.19-.53.46-.61l26.04-7.15a.6.6 0 0 1 .56.11c.16.12.25.3.25.5v30.41c0 1.05-.27 2.08-.79 2.99-1.64 2.86-5.3 3.86-8.16 2.22-2.86-1.64-3.86-5.3-2.22-8.16a5.924 5.924 0 0 1 3.62-2.8c1.54-.42 3.15-.21 4.54.58a1.16 1.16 0 0 0 1.38-.18l.03-.01Z"/>
</svg>
