<svg xmlns="http://www.w3.org/2000/svg"  fill="currentColor" viewBox="0 0 80 80">
  <path d="M40 14.48c-14.07 0-25.52 11.45-25.52 25.52S25.93 65.52 40 65.52 65.52 54.07 65.52 40 54.07 14.48 40 14.48Zm0 48.48c-12.66 0-22.96-10.3-22.96-22.96S27.34 17.04 40 17.04 62.96 27.34 62.96 40 52.66 62.96 40 62.96Z"/>
  <path d="M40 28.18c-6.52 0-11.82 5.3-11.82 11.82 0 6.52 5.3 11.82 11.82 11.82 6.52 0 11.82-5.3 11.82-11.82 0-6.52-5.3-11.82-11.82-11.82Zm0 21.08c-5.11 0-9.26-4.15-9.26-9.26 0-5.11 4.16-9.26 9.26-9.26s9.26 4.15 9.26 9.26c0 5.11-4.16 9.26-9.26 9.26Z"/>
  <path d="M40 56.64c-9.17 0-16.64-7.46-16.64-16.64 0-.71-.57-1.28-1.28-1.28-.71 0-1.28.57-1.28 1.28 0 10.59 8.61 19.2 19.2 19.2.71 0 1.28-.57 1.28-1.28 0-.71-.57-1.28-1.28-1.28Zm0-35.84c-.71 0-1.28.57-1.28 1.28 0 .71.57 1.28 1.28 1.28 9.17 0 16.64 7.46 16.64 16.64 0 .71.57 1.28 1.28 1.28.71 0 1.28-.57 1.28-1.28 0-10.59-8.61-19.2-19.2-19.2Zm0 22.32a3.12 3.12 0 1 0 0-6.24 3.12 3.12 0 0 0 0 6.24Z"/>
</svg>
